<svg xmlns="http://www.w3.org/2000/svg" x="0px" y="0px"
width="160" height="160"
viewBox="0 0 172 172"
style=" fill:#000000;"><g fill="none" fill-rule="nonzero" stroke="none" stroke-width="1" stroke-linecap="butt" stroke-linejoin="miter" stroke-miterlimit="10" stroke-dasharray="" stroke-dashoffset="0" font-family="none" font-weight="none" font-size="none" text-anchor="none" style="mix-blend-mode: normal"><path d="M0,172v-172h172v172z" fill="none"></path><path d="M0,86c0,-47.49649 38.50351,-86 86,-86c47.49649,0 86,38.50351 86,86c0,47.49649 -38.50351,86 -86,86c-47.49649,0 -86,-38.50351 -86,-86zM86,165.12c43.69677,0 79.12,-35.42323 79.12,-79.12c0,-43.69677 -35.42323,-79.12 -79.12,-79.12c-43.69677,0 -79.12,35.42323 -79.12,79.12c0,43.69677 35.42323,79.12 79.12,79.12z" fill="#000000"></path><g><path d="M47.3,90.34472v-32.72472h-5.16v32.72472c-3.00054,1.06554 -5.16,3.90096 -5.16,7.26528c0,4.27248 7.74,15.48 7.74,15.48c0,0 7.74,-11.20752 7.74,-15.48c0,-3.36432 -2.15946,-6.19974 -5.16,-7.26528z" fill="#ffc107"></path><path d="M88.58,119.54c-12.9,0 -12.9,-10.32 -12.9,-10.32v-15.48h25.8v15.48c0,0 0,10.32 -12.9,10.32z" fill="#ff9800"></path><path d="M42.14,57.62l46.44,-28.38l46.44,28.38l-46.44,25.8zM101.48,109.22v0c0,0 -2.58,10.32 -12.9,10.32c-10.32,0 -12.9,-10.32 -12.9,-10.32c0,0 -28.38,5.12388 -28.38,33.54h82.56c0,-28.3155 -28.38,-33.54 -28.38,-33.54" fill="#455a64"></path><path d="M116.96,78.26c0,2.8509 -2.31168,5.16 -5.16,5.16c-2.85348,0 -5.16,-2.3091 -5.16,-5.16c0,-2.8509 2.30652,-5.16 5.16,-5.16c2.84832,0 5.16,2.3091 5.16,5.16M70.52,78.26c0,-2.8509 -2.31168,-5.16 -5.16,-5.16c-2.85348,0 -5.16,2.3091 -5.16,5.16c0,2.8509 2.30652,5.16 5.16,5.16c2.84832,0 5.16,-2.3091 5.16,-5.16" fill="#ffa726"></path><path d="M111.8,62.78c0,-15.48 -46.44,-12.82518 -46.44,0v18.06c0,12.82518 10.39224,23.22 23.22,23.22c12.82518,0 23.22,-10.39482 23.22,-23.22z" fill="#ffb74d"></path><path d="M96.32,78.26c0,-1.42158 1.15584,-2.58 2.58,-2.58c1.42416,0 2.58,1.15842 2.58,2.58c0,1.42158 -1.15584,2.58 -2.58,2.58c-1.42416,0 -2.58,-1.15842 -2.58,-2.58M75.68,78.26c0,1.42158 1.15584,2.58 2.58,2.58c1.42416,0 2.58,-1.15842 2.58,-2.58c0,-1.42158 -1.15584,-2.58 -2.58,-2.58c-1.42416,0 -2.58,1.15842 -2.58,2.58" fill="#784719"></path><path d="M62.78,67.94v5.89788l5.16,4.42212v-12.9h-5.0568c-0.05934,0.8514 -0.1032,1.70796 -0.1032,2.58zM109.22,65.36v12.9l5.16,-4.49436v-5.82564c0,-0.86172 -0.02838,-1.72602 -0.06708,-2.58z" fill="#424242"></path><path d="M114.38,70.52c0,0 -12.9,-2.58 -25.8,-2.58c-12.9,0 -25.8,2.58 -25.8,2.58c0,-10.32 2.58,-15.48 2.58,-15.48c0,0 6.13008,-5.16 23.865,-5.16c17.7375,0 22.575,5.16 22.575,5.16c0,0 2.58,5.16 2.58,15.48z" fill="#62808c"></path></g><path d="M86,170.28c-46.54656,0 -84.28,-37.73344 -84.28,-84.28v0c0,-46.54656 37.73344,-84.28 84.28,-84.28v0c46.54656,0 84.28,37.73344 84.28,84.28v0c0,46.54656 -37.73344,84.28 -84.28,84.28z" fill="none"></path><path d="M86,166.84c-44.6467,0 -80.84,-36.1933 -80.84,-80.84v0c0,-44.6467 36.1933,-80.84 80.84,-80.84v0c44.6467,0 80.84,36.1933 80.84,80.84v0c0,44.6467 -36.1933,80.84 -80.84,80.84z" fill="none"></path><path d="M86,170.28c-46.54656,0 -84.28,-37.73344 -84.28,-84.28v0c0,-46.54656 37.73344,-84.28 84.28,-84.28v0c46.54656,0 84.28,37.73344 84.28,84.28v0c0,46.54656 -37.73344,84.28 -84.28,84.28z" fill="none"></path><path d="M86,163.4c-42.74684,0 -77.4,-34.65316 -77.4,-77.4v0c0,-42.74684 34.65316,-77.4 77.4,-77.4v0c42.74684,0 77.4,34.65316 77.4,77.4v0c0,42.74684 -34.65316,77.4 -77.4,77.4z" fill="none"></path><path d="M86,170.28c-46.54656,0 -84.28,-37.73344 -84.28,-84.28v0c0,-46.54656 37.73344,-84.28 84.28,-84.28v0c46.54656,0 84.28,37.73344 84.28,84.28v0c0,46.54656 -37.73344,84.28 -84.28,84.28z" fill="none"></path><path d="M86,159.96c-40.84698,0 -73.96,-33.11302 -73.96,-73.96v0c0,-40.84698 33.11302,-73.96 73.96,-73.96v0c40.84698,0 73.96,33.11302 73.96,73.96v0c0,40.84698 -33.11302,73.96 -73.96,73.96z" fill="none"></path><path d="M86,170.28c-46.54656,0 -84.28,-37.73344 -84.28,-84.28v0c0,-46.54656 37.73344,-84.28 84.28,-84.28v0c46.54656,0 84.28,37.73344 84.28,84.28v0c0,46.54656 -37.73344,84.28 -84.28,84.28z" fill="none"></path><path d="M86,163.4c-42.74684,0 -77.4,-34.65316 -77.4,-77.4v0c0,-42.74684 34.65316,-77.4 77.4,-77.4v0c42.74684,0 77.4,34.65316 77.4,77.4v0c0,42.74684 -34.65316,77.4 -77.4,77.4z" fill="none"></path><path d="M86,170.28c-46.54656,0 -84.28,-37.73344 -84.28,-84.28v0c0,-46.54656 37.73344,-84.28 84.28,-84.28v0c46.54656,0 84.28,37.73344 84.28,84.28v0c0,46.54656 -37.73344,84.28 -84.28,84.28z" fill="none"></path><path d="M86,163.4c-42.74684,0 -77.4,-34.65316 -77.4,-77.4v0c0,-42.74684 34.65316,-77.4 77.4,-77.4v0c42.74684,0 77.4,34.65316 77.4,77.4v0c0,42.74684 -34.65316,77.4 -77.4,77.4z" fill="none"></path><path d="M86,169.42c-46.07159,0 -83.42,-37.34841 -83.42,-83.42v0c0,-46.07159 37.34841,-83.42 83.42,-83.42h0c46.07159,0 83.42,37.34841 83.42,83.42v0c0,46.07159 -37.34841,83.42 -83.42,83.42z" fill="none"></path><path d="M86,162.54c-42.27187,0 -76.54,-34.26813 -76.54,-76.54v0c0,-42.27187 34.26813,-76.54 76.54,-76.54h0c42.27187,0 76.54,34.26813 76.54,76.54v0c0,42.27187 -34.26813,76.54 -76.54,76.54z" fill="none"></path><path d="M86,170.28c-46.54656,0 -84.28,-37.73344 -84.28,-84.28v0c0,-46.54656 37.73344,-84.28 84.28,-84.28v0c46.54656,0 84.28,37.73344 84.28,84.28v0c0,46.54656 -37.73344,84.28 -84.28,84.28z" fill="none"></path><path d="M86,163.4c-42.74684,0 -77.4,-34.65316 -77.4,-77.4v0c0,-42.74684 34.65316,-77.4 77.4,-77.4v0c42.74684,0 77.4,34.65316 77.4,77.4v0c0,42.74684 -34.65316,77.4 -77.4,77.4z" fill="none"></path><path d="M86,172c-47.49649,0 -86,-38.50351 -86,-86v0c0,-47.49649 38.50351,-86 86,-86v0c47.49649,0 86,38.50351 86,86v0c0,47.49649 -38.50351,86 -86,86z" fill="none"></path><path d="M86,165.12c-43.69677,0 -79.12,-35.42323 -79.12,-79.12v0c0,-43.69677 35.42323,-79.12 79.12,-79.12v0c43.69677,0 79.12,35.42323 79.12,79.12v0c0,43.69677 -35.42323,79.12 -79.12,79.12z" fill="none"></path><path d="M86,178.88c-51.29621,0 -92.88,-41.58379 -92.88,-92.88v0c0,-51.29621 41.58379,-92.88 92.88,-92.88v0c51.29621,0 92.88,41.58379 92.88,92.88v0c0,51.29621 -41.58379,92.88 -92.88,92.88z" fill="none"></path><path d="M86,172c-47.49649,0 -86,-38.50351 -86,-86v0c0,-47.49649 38.50351,-86 86,-86v0c47.49649,0 86,38.50351 86,86v0c0,47.49649 -38.50351,86 -86,86z" fill="none"></path><path d="M86,172c-47.49649,0 -86,-38.50351 -86,-86v0c0,-47.49649 38.50351,-86 86,-86v0c47.49649,0 86,38.50351 86,86v0c0,47.49649 -38.50351,86 -86,86z" fill="none"></path><path d="M86,165.12c-43.69677,0 -79.12,-35.42323 -79.12,-79.12v0c0,-43.69677 35.42323,-79.12 79.12,-79.12v0c43.69677,0 79.12,35.42323 79.12,79.12v0c0,43.69677 -35.42323,79.12 -79.12,79.12z" fill="none"></path></g></svg>