<svg xmlns="http://www.w3.org/2000/svg" x="0px" y="0px"
width="120" height="120"
viewBox="0 0 172 172"
style=" fill:#000000;"><g fill="none" fill-rule="nonzero" stroke="none" stroke-width="1" stroke-linecap="butt" stroke-linejoin="miter" stroke-miterlimit="10" stroke-dasharray="" stroke-dashoffset="0" font-family="none" font-weight="none" font-size="none" text-anchor="none" style="mix-blend-mode: normal"><path d="M0,172v-172h172v172z" fill="none"></path><path d="M0,86c0,-47.49649 38.50351,-86 86,-86c47.49649,0 86,38.50351 86,86c0,47.49649 -38.50351,86 -86,86c-47.49649,0 -86,-38.50351 -86,-86zM86,168.56c45.59663,0 82.56,-36.96337 82.56,-82.56c0,-45.59663 -36.96337,-82.56 -82.56,-82.56c-45.59663,0 -82.56,36.96337 -82.56,82.56c0,45.59663 36.96337,82.56 82.56,82.56z" fill="#000000"></path><g><path d="M35.83294,35.83612h100.33413v61.3153h-100.33413z" fill="#009688"></path><path d="M127.80589,46.98157v50.16706h-83.61177v-50.16706h86.39883M136.16706,41.40745h-100.33413v55.74118h100.33413v-55.74118z" fill="#00796b"></path><path d="M130.59295,41.40745v52.95412h-89.18589v-52.95412h89.18589M136.16706,35.83333h-100.33413v61.3153h100.33413v-61.3153z" fill="#dd7c12"></path><path d="M141.74118,105.50981v-5.57412c0,-3.07691 -2.49721,-5.57412 -5.57412,-5.57412h-97.54707c-3.07691,0 -5.57412,2.49721 -5.57412,5.57412v5.57412z" fill="#773d04"></path><path d="M116.65765,94.36158h-19.50941v-5.57412h19.50941l2.78706,2.78706z" fill="#ffffff"></path><path d="M46.98117,60.91687c-6.14825,0 -11.14824,-5.00277 -11.14824,-11.14824c0,-6.14825 4.99998,-11.14824 11.14824,-11.14824c6.14825,0 11.14824,4.99998 11.14824,11.14824c0,6.14547 -4.99998,11.14824 -11.14824,11.14824M38.61999,113.87099l-8.36118,-5.57412v-11.14824h8.36118zM97.21234,66.49098l0.5602,10.03341l-8.92138,6.68894l-5.01392,-6.68894z" fill="#ffb74d"></path><path d="M39.21643,136.17025h20.91967l2.21014,-45.72449v-7.23242l14.89404,9.55125c0.60758,0.23411 3.11872,0.34281 4.44815,-0.66611l13.29706,-11.08692l-6.8701,-9.3032l-9.94701,7.59474c0,0 -15.02225,-11.81992 -17.77308,-13.46428c-0.07804,-0.04459 -4.61816,-2.13489 -10.40967,-2.13489c-0.04738,0 -0.07525,0.00557 -0.11984,0.00557c-0.03344,0 -0.0641,-0.00557 -0.09755,-0.00557c-13.9353,0 -19.50941,5.57412 -19.50941,16.72235v22.29647l7.31603,4.87735z" fill="#455a64"></path><g fill="#ffa726"><path d="M55.34235,115.26452c0,3.84614 -3.11872,6.96765 -6.96765,6.96765c-3.84893,0 -6.96765,-3.12151 -6.96765,-6.96765c0,-3.84893 3.11872,-6.96765 6.96765,-6.96765c3.84893,0 6.96765,3.11872 6.96765,6.96765M80.42588,115.26452c0,3.84614 -3.11872,6.96765 -6.96765,6.96765c-3.84893,0 -6.96765,-3.12151 -6.96765,-6.96765c0,-3.84893 3.11872,-6.96765 6.96765,-6.96765c3.84893,0 6.96765,3.11872 6.96765,6.96765M105.50941,115.26452c0,3.84614 -3.11872,6.96765 -6.96765,6.96765c-3.84893,0 -6.96765,-3.12151 -6.96765,-6.96765c0,-3.84893 3.11872,-6.96765 6.96765,-6.96765c3.84893,0 6.96765,3.11872 6.96765,6.96765M130.59295,115.26452c0,3.84614 -3.12151,6.96765 -6.96765,6.96765c-3.84614,0 -6.96765,-3.12151 -6.96765,-6.96765c0,-3.84893 3.12151,-6.96765 6.96765,-6.96765c3.84614,0 6.96765,3.11872 6.96765,6.96765"></path></g><g fill="#607d8b"><path d="M60.91647,133.3804c0,0 -3.47268,-8.36118 -12.54177,-8.36118c-9.06909,0 -12.54177,8.36118 -12.54177,8.36118v2.78706h25.08353zM86,133.3804c0,0 -3.47268,-8.36118 -12.54177,-8.36118c-9.06909,0 -12.54177,8.36118 -12.54177,8.36118v2.78706h25.08353zM111.08353,133.3804c0,0 -3.47268,-8.36118 -12.54177,-8.36118c-9.06909,0 -12.54177,8.36118 -12.54177,8.36118v2.78706h25.08353zM136.16706,133.3804c0,0 -3.46989,-8.36118 -12.54177,-8.36118c-9.06909,0 -12.54177,8.36118 -12.54177,8.36118v2.78706h25.08353z"></path></g></g><path d="M86,172c-47.49649,0 -86,-38.50351 -86,-86v0c0,-47.49649 38.50351,-86 86,-86v0c47.49649,0 86,38.50351 86,86v0c0,47.49649 -38.50351,86 -86,86z" fill="none"></path><path d="M86,168.56c-45.59663,0 -82.56,-36.96337 -82.56,-82.56v0c0,-45.59663 36.96337,-82.56 82.56,-82.56v0c45.59663,0 82.56,36.96337 82.56,82.56v0c0,45.59663 -36.96337,82.56 -82.56,82.56z" fill="none"></path><path d="M86,172c-47.49649,0 -86,-38.50351 -86,-86v0c0,-47.49649 38.50351,-86 86,-86v0c47.49649,0 86,38.50351 86,86v0c0,47.49649 -38.50351,86 -86,86z" fill="none"></path><path d="M86,168.56c-45.59663,0 -82.56,-36.96337 -82.56,-82.56v0c0,-45.59663 36.96337,-82.56 82.56,-82.56v0c45.59663,0 82.56,36.96337 82.56,82.56v0c0,45.59663 -36.96337,82.56 -82.56,82.56z" fill="none"></path><path d="M86,172c-47.49649,0 -86,-38.50351 -86,-86v0c0,-47.49649 38.50351,-86 86,-86v0c47.49649,0 86,38.50351 86,86v0c0,47.49649 -38.50351,86 -86,86z" fill="none"></path><path d="M86,168.56c-45.59663,0 -82.56,-36.96337 -82.56,-82.56v0c0,-45.59663 36.96337,-82.56 82.56,-82.56v0c45.59663,0 82.56,36.96337 82.56,82.56v0c0,45.59663 -36.96337,82.56 -82.56,82.56z" fill="none"></path><path d="M86,172c-47.49649,0 -86,-38.50351 -86,-86v0c0,-47.49649 38.50351,-86 86,-86v0c47.49649,0 86,38.50351 86,86v0c0,47.49649 -38.50351,86 -86,86z" fill="none"></path><path d="M86,168.56c-45.59663,0 -82.56,-36.96337 -82.56,-82.56v0c0,-45.59663 36.96337,-82.56 82.56,-82.56v0c45.59663,0 82.56,36.96337 82.56,82.56v0c0,45.59663 -36.96337,82.56 -82.56,82.56z" fill="none"></path></g></svg>